<?xml version="1.0" standalone="no"?>
<!DOCTYPE svg PUBLIC "-//W3C//DTD SVG 20010904//EN"
 "http://www.w3.org/TR/2001/REC-SVG-20010904/DTD/svg10.dtd">
<svg version="1.0" xmlns="http://www.w3.org/2000/svg"
 width="972.000000pt" height="972.000000pt" viewBox="0 0 972.000000 972.000000"
 preserveAspectRatio="xMidYMid meet">

<g transform="translate(0.000000,972.000000) scale(0.100000,-0.100000)"
fill="#000000" stroke="none">
<path d="M4406 8215 c-11 -8 -39 -15 -62 -15 -24 0 -45 -4 -48 -9 -3 -4 -28
-11 -55 -15 -28 -4 -53 -11 -56 -16 -3 -6 -16 -10 -28 -10 -12 0 -29 -6 -38
-13 -72 -56 -71 -55 -57 -77 14 -23 7 -23 138 1 36 6 146 12 245 12 147 0 190
-3 237 -18 l57 -18 113 31 c127 35 261 56 310 47 18 -3 56 -7 83 -9 28 -1 68
-11 90 -21 53 -25 133 -86 140 -107 4 -10 11 -18 16 -18 5 0 9 -5 9 -11 0 -6
9 -24 21 -40 15 -21 29 -29 50 -29 36 0 124 -42 209 -100 58 -39 63 -41 80
-25 16 15 19 15 34 -1 22 -21 20 -25 -33 -65 -47 -36 -76 -71 -85 -105 -6 -20
-2 -21 65 -27 40 -3 94 -14 120 -23 58 -21 80 -13 120 44 91 127 40 281 -121
368 -41 22 -161 25 -197 6 -27 -15 -73 -6 -73 15 0 18 17 35 53 50 15 7 27 19
27 27 0 21 -99 118 -141 137 -76 36 -125 43 -327 46 -126 2 -209 0 -216 -6 -7
-6 -32 -13 -56 -16 -25 -4 -61 -14 -80 -23 -45 -20 -78 -19 -120 1 -18 10 -43
17 -55 17 -11 0 -30 7 -41 15 -15 11 -52 14 -164 14 -112 0 -149 -3 -164 -14z"/>
<path d="M5854 8106 c-10 -25 23 -63 56 -64 107 -3 280 -180 307 -313 3 -17
13 -33 22 -36 50 -18 46 -38 -20 -107 -21 -22 -42 -49 -45 -60 -4 -12 -17 -35
-30 -52 -24 -31 -32 -64 -15 -64 17 0 39 -59 52 -136 10 -62 16 -77 33 -84 27
-10 66 8 66 30 0 10 17 30 38 46 20 15 39 30 42 33 45 50 243 98 363 88 64 -6
178 -36 217 -58 92 -51 83 -49 165 -34 42 8 92 15 111 15 32 0 34 2 34 36 0
29 -8 44 -45 79 -24 24 -54 46 -67 50 -13 3 -32 10 -43 14 -59 25 -75 27 -125
22 -53 -6 -55 -7 -52 -34 5 -45 -21 -43 -100 5 -40 24 -84 49 -98 55 -106 46
-117 48 -203 47 l-88 -1 -42 -40 c-23 -23 -52 -44 -64 -48 -20 -5 -23 -3 -23
19 0 41 15 69 69 123 28 29 51 58 51 66 0 8 -9 25 -21 38 -11 13 -37 45 -57
71 -20 27 -42 48 -48 48 -17 0 -54 49 -54 71 0 27 12 24 74 -16 30 -19 58 -35
61 -35 13 0 99 -87 137 -137 25 -34 46 -53 59 -53 22 0 150 -62 218 -105 l40
-25 51 26 c27 14 54 23 59 20 4 -3 16 0 25 7 16 12 15 15 -10 40 -31 32 -106
67 -140 67 -23 0 -25 -3 -28 -50 -1 -8 -11 -16 -23 -18 -17 -3 -49 24 -135
110 -110 110 -180 169 -263 220 -74 46 -158 88 -175 88 -10 0 -31 7 -46 15
-16 8 -39 15 -51 15 -12 0 -24 4 -27 9 -3 5 -51 9 -106 10 -80 2 -101 -1 -106
-13z"/>
<path d="M3640 8089 c-19 -4 -57 -13 -84 -18 -27 -6 -54 -15 -60 -20 -6 -4
-23 -11 -38 -15 -16 -3 -28 -11 -28 -16 0 -6 -6 -10 -14 -10 -8 0 -16 -3 -18
-7 -1 -5 -20 -17 -40 -27 -21 -11 -38 -25 -38 -33 0 -7 -6 -13 -13 -13 -19 0
-50 -37 -42 -50 3 -5 10 -8 15 -5 4 3 13 -2 20 -10 7 -8 22 -15 33 -15 26 0
120 -44 137 -65 7 -8 18 -15 25 -15 7 0 15 -7 19 -15 8 -23 46 -19 46 5 0 24
31 90 42 90 4 0 8 6 8 13 0 22 64 76 98 83 19 4 32 2 32 -4 0 -16 -23 -56 -47
-82 -13 -13 -23 -31 -23 -40 0 -8 -7 -26 -17 -39 -11 -17 -16 -47 -17 -105 -1
-71 2 -86 25 -121 l26 -39 79 2 c87 4 194 -17 252 -48 20 -11 42 -20 49 -20 7
0 13 -4 13 -8 0 -12 90 -69 121 -77 17 -4 33 0 52 15 31 24 103 47 200 63 l69
11 -5 41 c-10 77 -74 168 -149 213 -16 9 -28 20 -28 24 0 4 -7 8 -16 8 -25 0
-13 44 13 48 27 4 106 -39 154 -86 l37 -34 36 49 c115 150 279 198 463 134
l81 -28 54 19 c100 37 193 60 226 54 27 -4 32 -2 32 15 0 55 -120 123 -235
135 -108 11 -291 -27 -344 -71 l-30 -26 -98 21 c-167 35 -450 36 -520 2 -10
-5 -34 -17 -54 -26 -55 -26 -70 -62 -76 -177 -3 -54 -10 -99 -15 -99 -16 0
-47 64 -53 110 -3 25 -11 64 -17 88 -9 36 -8 48 7 76 11 21 15 42 11 57 -6 24
-66 69 -91 69 -7 0 -26 7 -41 15 -32 16 -163 19 -224 4z"/>
<path d="M5350 7824 c-8 -3 -39 -12 -68 -22 -29 -9 -60 -24 -69 -34 -14 -16
-13 -21 18 -60 18 -24 36 -45 40 -48 10 -8 34 -58 65 -135 24 -61 28 -83 27
-165 -1 -127 -16 -161 -84 -192 l-51 -23 -3 -75 c-2 -53 -9 -89 -25 -123 l-23
-48 29 -31 c16 -18 39 -41 52 -53 12 -12 22 -26 22 -31 1 -5 10 -20 20 -33 18
-20 26 -23 67 -18 58 6 114 -17 163 -68 19 -19 38 -35 43 -35 4 0 27 13 50 28
108 73 312 70 502 -6 68 -27 143 -70 174 -98 14 -13 31 -24 37 -24 16 0 38 29
59 78 16 38 17 52 7 132 -6 49 -18 107 -28 127 -49 110 -61 131 -92 160 -68
64 -106 78 -217 76 -67 -1 -127 -8 -180 -23 -44 -11 -97 -25 -118 -31 -21 -5
-48 -16 -60 -23 -12 -8 -33 -17 -46 -21 -13 -4 -47 -21 -75 -37 -28 -17 -70
-36 -94 -43 -84 -26 -57 28 53 104 124 87 348 176 462 185 66 5 78 19 69 79
-14 85 -54 121 -181 166 -60 21 -89 24 -210 25 -130 1 -140 3 -140 20 0 15 15
25 60 41 38 13 64 29 71 43 6 12 18 30 27 40 10 10 17 28 17 40 0 21 -75 102
-95 102 -5 0 -32 12 -60 26 -38 20 -68 27 -125 30 -41 2 -82 1 -90 -2z"/>
<path d="M4746 7775 c-64 -32 -93 -60 -121 -115 -33 -66 -37 -95 -23 -157 12
-52 16 -58 56 -75 41 -18 82 -53 82 -70 0 -13 -53 -9 -116 7 -61 16 -151 9
-228 -19 -54 -19 -136 -91 -136 -120 0 -12 -4 -26 -9 -31 -5 -6 -11 -29 -13
-53 -3 -37 -1 -43 17 -47 11 -2 49 -9 85 -16 36 -7 81 -22 100 -33 19 -12 52
-30 73 -41 22 -10 47 -29 57 -42 10 -13 20 -23 23 -23 12 0 157 -146 157 -158
0 -6 4 -12 10 -12 5 0 29 -29 52 -65 39 -62 42 -64 60 -49 10 10 18 22 18 29
0 21 49 60 61 48 11 -11 -8 -91 -38 -161 -23 -52 -22 -337 0 -382 9 -18 17
-45 17 -60 0 -27 73 -120 94 -120 6 0 24 7 40 15 36 19 177 29 236 18 25 -5
59 -6 76 -1 38 10 92 63 101 98 3 14 9 30 13 35 5 6 13 44 20 87 24 149 -11
326 -69 358 -28 15 -93 12 -117 -4 -29 -21 -59 -88 -85 -193 -13 -51 -29 -93
-35 -93 -6 0 -14 23 -17 50 -6 51 9 138 39 232 15 45 12 88 -6 88 -5 0 -12 10
-15 21 -9 27 -44 68 -120 142 -73 70 -105 99 -126 112 -9 6 -34 22 -57 37 -22
15 -83 48 -136 74 -52 25 -97 52 -100 60 -9 23 22 28 77 14 60 -15 232 -99
267 -130 56 -49 110 -62 110 -25 0 9 7 27 16 40 12 19 15 42 12 97 -5 89 -61
235 -119 315 -22 29 -39 57 -39 63 0 5 -6 10 -14 10 -14 0 -43 66 -33 76 10
10 54 -16 87 -53 39 -42 83 -100 93 -123 4 -8 16 -28 26 -45 11 -16 20 -37 20
-46 1 -9 9 -27 19 -39 18 -22 19 -22 55 -5 25 12 38 25 42 46 13 56 7 115 -19
181 -44 118 -104 184 -216 237 -67 32 -85 36 -165 38 -79 3 -96 0 -139 -22z"/>
<path d="M3197 7750 c-20 -4 -54 -15 -75 -26 -44 -23 -132 -108 -132 -129 0
-8 -4 -15 -8 -15 -10 0 -35 -74 -57 -165 -11 -49 -23 -75 -37 -84 -16 -10 -22
-10 -28 -1 -11 18 -22 147 -15 170 4 11 3 20 -2 20 -9 0 -63 -58 -63 -67 0 -2
-6 -11 -12 -18 -7 -8 -19 -22 -27 -31 -16 -19 -61 -105 -61 -117 0 -5 -6 -23
-14 -40 -30 -67 -48 -126 -42 -136 4 -6 27 -2 64 11 44 16 86 22 186 25 71 1
130 4 131 5 1 2 18 50 39 108 21 57 45 110 52 118 8 7 14 16 14 20 0 4 16 24
36 45 29 30 39 35 50 26 18 -15 18 -43 -1 -59 -8 -7 -15 -21 -15 -30 0 -10 -5
-20 -10 -22 -30 -10 -55 -241 -30 -271 48 -57 63 -79 89 -132 16 -33 32 -77
36 -97 8 -45 21 -51 71 -33 22 8 62 14 90 15 56 0 64 8 64 60 0 16 5 32 10 35
6 3 10 14 10 23 0 15 33 77 73 136 18 28 62 70 91 89 23 15 27 16 32 3 6 -15
-45 -116 -58 -116 -5 0 -8 -7 -8 -15 0 -8 -4 -15 -9 -15 -12 0 -38 -74 -50
-143 -12 -66 0 -102 41 -129 29 -19 115 -105 135 -135 22 -34 34 -28 72 31 20
32 48 61 69 72 19 11 54 29 76 41 30 16 59 22 109 22 64 1 67 0 67 -23 0 -18
-9 -27 -43 -40 -23 -9 -47 -16 -53 -16 -18 0 -108 -63 -134 -94 -54 -64 -64
-87 -50 -126 7 -19 21 -43 31 -53 21 -20 25 -42 8 -53 -12 -7 -128 103 -129
122 0 7 -10 18 -22 27 -13 8 -45 36 -73 63 -77 75 -125 110 -182 130 -66 23
-100 16 -308 -65 -98 -38 -274 -141 -293 -170 -7 -12 -19 -21 -27 -21 -37 0
-91 -168 -89 -275 2 -79 19 -243 33 -325 6 -30 13 -88 16 -128 l5 -72 -24 16
c-23 15 -25 14 -39 -8 -8 -13 -18 -33 -21 -45 -11 -35 -36 -36 -82 -3 -23 16
-45 30 -49 30 -19 0 -109 79 -138 123 -14 20 -17 21 -32 6 -34 -34 -38 -158
-6 -218 6 -11 11 -31 11 -44 0 -26 -22 -52 -34 -39 -21 20 -76 181 -76 222 0
39 32 108 70 153 46 53 75 50 119 -12 32 -45 125 -122 154 -129 6 -1 23 21 36
50 23 50 23 55 11 137 -22 153 -28 172 -79 218 -48 44 -105 62 -153 48 -85
-26 -229 -168 -283 -279 -25 -53 -25 -219 0 -316 26 -102 92 -226 156 -290 76
-78 159 -104 159 -51 0 25 46 113 65 124 20 11 19 57 -1 85 -15 22 -12 42 7
42 12 0 29 -13 82 -62 21 -21 43 -38 48 -38 5 0 9 -5 9 -10 0 -6 8 -13 18 -17
9 -3 24 -12 32 -18 8 -7 41 -17 72 -22 52 -9 61 -8 100 14 23 13 64 44 90 69
26 24 52 44 57 44 5 0 12 8 15 18 3 9 16 29 28 43 57 65 78 94 78 102 0 6 7
15 16 22 12 8 15 20 9 43 -3 18 -11 32 -16 32 -5 0 -9 7 -9 15 0 8 -4 15 -9
15 -5 0 -13 10 -17 23 -4 12 -18 39 -30 59 -13 21 -24 44 -24 52 0 9 -7 32
-16 53 -28 63 -32 75 -48 148 -24 104 -32 230 -16 240 23 14 44 -27 75 -149
16 -65 35 -120 42 -123 7 -3 13 -17 13 -32 0 -14 7 -35 15 -45 8 -11 15 -30
15 -43 0 -13 5 -23 10 -23 6 0 10 -6 10 -14 0 -7 7 -19 15 -26 8 -7 15 -20 15
-30 0 -10 7 -20 15 -24 8 -3 15 -10 15 -16 0 -27 155 -182 200 -199 19 -8 42
-20 51 -28 8 -7 20 -13 26 -13 6 0 24 -6 40 -14 51 -26 109 -38 154 -33 104
13 177 35 207 64 7 7 18 13 24 13 6 0 28 18 49 40 22 22 42 40 46 40 5 1 26
29 48 63 41 63 75 85 75 49 0 -25 -38 -112 -49 -112 -5 0 -11 -8 -15 -17 -3
-10 -9 -24 -12 -32 -5 -11 25 -12 177 -9 169 5 209 10 274 38 99 43 129 58
190 97 38 25 88 66 112 91 54 57 59 108 15 150 -34 33 -66 52 -88 52 -9 0 -30
6 -47 14 -143 64 -600 59 -692 -9 -16 -12 -61 -37 -100 -55 -60 -29 -81 -34
-145 -35 -94 0 -117 6 -160 45 -19 18 -40 35 -46 38 -11 7 -80 102 -101 140
-17 29 -17 72 0 72 12 0 41 -27 99 -90 34 -38 121 -90 151 -90 14 0 28 -4 31
-9 8 -13 83 8 149 41 64 31 153 116 178 169 23 49 40 148 31 189 -12 59 -4 90
24 90 13 0 24 -1 24 -3 0 -1 9 -27 20 -57 30 -83 37 -178 15 -224 -10 -20 -15
-40 -11 -43 4 -4 64 -8 134 -10 70 -2 156 -7 192 -13 123 -17 185 -31 188 -40
2 -6 8 -10 13 -10 11 0 12 377 1 382 -4 2 -19 21 -32 43 -52 88 -127 184 -199
253 -81 79 -180 149 -221 158 -14 3 -47 12 -74 21 -39 11 -73 13 -153 8 -57
-4 -103 -5 -103 -2 0 15 52 56 80 62 33 7 36 14 44 111 l5 60 -42 40 c-61 55
-99 84 -113 84 -7 0 -14 4 -16 10 -5 15 -136 50 -186 50 -90 0 -250 -69 -297
-128 -11 -14 -30 -36 -42 -50 -13 -14 -23 -29 -23 -33 0 -5 -9 -9 -20 -9 -16
0 -20 7 -20 36 0 58 61 134 158 196 47 31 48 33 26 79 -54 117 -134 188 -250
220 -38 11 -71 18 -74 18 -3 -1 -22 -5 -43 -9z"/>
<path d="M2534 7292 c-22 -21 -54 -67 -72 -102 -29 -55 -31 -65 -18 -72 16 -9
23 -58 8 -58 -5 0 -33 -22 -63 -50 -30 -27 -57 -50 -61 -50 -5 0 -8 -7 -8 -15
0 -8 -4 -15 -10 -15 -17 0 -120 -145 -126 -178 -4 -18 -11 -35 -15 -38 -12 -7
-11 -74 1 -74 6 0 10 4 10 8 0 4 15 15 33 24 17 8 81 41 142 73 121 63 244 95
266 69 14 -16 -19 -51 -58 -60 -38 -9 -254 -119 -278 -141 -11 -10 -38 -32
-60 -50 -24 -18 -52 -54 -67 -85 -62 -129 -60 -119 -56 -287 5 -160 21 -231
51 -231 8 0 28 23 46 50 54 83 152 186 231 243 60 42 115 49 172 20 18 -9 45
-23 61 -30 15 -8 32 -11 37 -8 6 3 10 33 10 66 0 33 7 76 15 96 27 63 16 73
-83 75 -141 2 -202 -3 -260 -22 -65 -22 -82 -17 -82 19 0 28 -1 28 110 71 24
10 91 15 221 16 l186 2 65 41 c36 23 70 41 77 41 6 0 11 4 11 8 0 5 21 19 48
32 26 13 64 34 86 48 l39 24 -6 71 c-7 85 -24 129 -69 178 -51 56 -109 73
-221 66 -113 -7 -221 -30 -298 -62 -110 -47 -147 -22 -59 40 44 31 45 33 57
111 7 43 17 98 24 122 6 23 9 45 7 48 -3 3 -23 -13 -44 -34z"/>
<path d="M6570 7285 c-30 -7 -66 -17 -80 -22 -42 -18 -112 -85 -127 -121 -13
-32 -13 -36 12 -73 14 -22 30 -50 36 -62 5 -12 18 -37 30 -56 11 -19 27 -55
36 -80 8 -25 18 -49 22 -53 3 -4 29 4 57 17 53 25 154 46 185 38 20 -6 34 -32
22 -44 -4 -4 -37 -17 -72 -29 -79 -26 -141 -57 -141 -70 0 -6 -6 -10 -14 -10
-18 0 -33 -95 -18 -113 6 -7 23 -14 39 -15 83 -6 239 -91 324 -176 26 -25 50
-46 53 -46 4 0 30 23 59 50 64 63 166 131 229 155 65 24 115 16 173 -28 l46
-36 42 19 c23 10 48 29 54 42 16 28 17 156 2 195 -15 41 -52 93 -66 93 -7 0
-13 5 -13 11 0 7 -12 9 -36 4 -59 -11 -81 -25 -100 -66 -21 -48 -36 -49 -114
-8 -55 28 -188 65 -198 54 -3 -3 -6 -47 -6 -100 -1 -88 -3 -96 -27 -121 -15
-15 -32 -23 -38 -20 -7 5 -11 43 -11 99 -1 61 -6 100 -15 117 -8 14 -14 34
-15 46 0 23 -112 153 -152 177 -31 18 -37 44 -11 54 26 10 101 -36 165 -101
48 -49 65 -60 96 -63 59 -5 164 -33 198 -54 44 -27 61 -24 86 14 12 19 33 39
47 45 14 6 43 17 64 26 41 17 44 29 24 88 -15 42 -53 88 -74 88 -7 0 -13 4
-13 9 0 20 -58 44 -119 51 -75 8 -88 5 -69 -18 25 -30 68 -119 68 -141 0 -15
-4 -19 -17 -14 -18 6 -133 121 -133 132 0 8 -185 96 -230 109 -55 16 -200 20
-260 7z"/>
<path d="M5730 6564 c-19 -8 -43 -17 -52 -20 -9 -3 -27 -22 -41 -42 -21 -33
-24 -52 -30 -180 l-7 -143 64 7 c46 5 79 2 117 -10 30 -9 70 -17 89 -19 34 -2
35 -1 33 34 -2 39 -58 169 -73 169 -6 0 -10 14 -10 30 0 41 31 40 74 -4 35
-34 100 -158 111 -211 14 -63 27 -75 157 -140 134 -68 146 -71 178 -55 49 25
64 33 118 61 31 17 77 51 102 75 49 47 61 52 79 30 9 -11 9 -20 -1 -38 -34
-60 -105 -142 -154 -180 l-55 -41 33 -28 c18 -16 36 -28 40 -29 10 0 128 -119
128 -129 0 -12 95 -31 155 -31 55 0 152 40 162 67 3 7 11 13 19 13 8 0 14 6
14 14 0 8 3 16 8 18 10 4 82 113 98 148 74 162 85 180 112 180 26 0 0 -153
-43 -257 -8 -20 -15 -39 -15 -44 0 -5 42 -9 94 -9 71 0 97 4 106 15 7 8 17 15
22 15 31 0 126 146 114 176 -3 9 -17 13 -37 12 -21 -2 -35 3 -43 14 -15 24 0
46 49 74 50 28 118 96 141 142 11 21 22 39 25 42 24 19 50 192 31 204 -5 3
-23 -8 -41 -24 -17 -16 -48 -34 -69 -41 -58 -17 -71 -32 -84 -95 -16 -81 -68
-135 -81 -84 -3 12 -1 35 4 53 14 50 11 125 -7 152 -39 59 -187 9 -282 -95
-102 -112 -102 -112 -102 -170 0 -124 -67 -267 -144 -307 -24 -12 -30 -13 -37
-1 -5 7 -8 15 -6 18 1 3 20 40 41 83 48 98 58 186 32 275 -28 90 -72 131 -199
182 -102 41 -186 42 -216 4 -23 -29 -27 -68 -11 -108 13 -34 -3 -76 -28 -76
-14 0 -25 14 -37 47 -23 61 -93 163 -110 163 -5 0 -22 11 -39 24 -17 13 -63
37 -103 55 -70 30 -75 31 -215 30 -97 -1 -154 -6 -178 -15z"/>
<path d="M5635 6072 c-49 -5 -92 -30 -105 -61 -17 -42 -10 -65 23 -69 15 -2
27 -7 27 -12 0 -5 15 -17 33 -26 53 -28 169 -105 205 -138 64 -57 147 -141
170 -171 12 -17 30 -40 40 -53 l17 -24 55 22 c75 30 286 35 304 8 17 -28 -11
-47 -85 -58 -75 -11 -179 -42 -179 -52 0 -5 -6 -8 -14 -8 -31 0 -43 -28 -45
-102 -1 -77 -18 -176 -33 -193 -17 -20 -6 -53 32 -94 22 -23 40 -49 40 -57 0
-8 4 -14 8 -14 9 0 42 -97 42 -123 0 -14 11 -17 60 -17 33 0 60 4 60 9 0 5 13
13 28 19 15 5 45 26 66 46 22 20 40 36 42 36 9 0 126 125 160 170 56 77 71
115 51 135 -18 17 -117 22 -117 5 0 -5 -5 -10 -10 -10 -6 0 -35 -18 -64 -40
-29 -22 -57 -40 -63 -40 -5 0 -32 -11 -58 -26 -58 -30 -90 -29 -90 5 0 13 8
29 19 35 31 18 77 58 144 124 35 34 69 65 76 70 6 4 27 27 46 52 19 25 40 51
47 58 28 29 3 131 -44 182 -13 14 -26 33 -29 43 -3 9 -12 17 -20 17 -8 0 -14
4 -14 8 0 5 -21 24 -47 42 -27 19 -50 38 -51 42 -2 5 -23 18 -45 30 -23 11
-44 24 -47 27 -8 10 -204 104 -305 146 -49 20 -99 41 -110 46 -21 9 -168 16
-220 11z"/>
<path d="M5116 5930 c-73 -37 -86 -48 -80 -64 3 -7 -2 -19 -11 -26 -8 -7 -15
-16 -15 -21 0 -23 -123 -149 -145 -149 -8 0 -15 -4 -15 -10 0 -5 -11 -12 -25
-16 -38 -10 -46 -25 -31 -67 7 -20 15 -40 19 -43 10 -10 9 -121 -2 -142 -5 -9
-21 -43 -36 -74 -29 -61 -153 -188 -184 -188 -5 0 -11 -4 -13 -9 -4 -11 -133
-71 -153 -71 -22 0 -55 -23 -108 -75 -25 -24 -65 -56 -89 -71 -24 -15 -45 -30
-48 -34 -3 -3 -21 -12 -40 -20 -19 -7 -48 -18 -65 -25 -77 -30 -105 -38 -170
-47 -83 -12 -331 -4 -348 11 -7 5 -35 17 -62 26 -61 21 -99 53 -85 71 14 15
62 25 75 14 34 -28 320 -51 389 -31 142 41 242 85 284 124 l24 22 -38 11 c-21
6 -39 15 -41 20 -6 18 55 44 116 51 34 3 64 10 67 14 3 5 15 9 28 9 12 0 31 7
42 15 10 8 26 15 34 15 8 0 28 7 44 15 15 8 32 15 37 15 5 0 27 12 48 28 21
15 48 34 60 42 12 8 32 31 44 50 11 19 26 38 31 42 13 8 21 135 12 183 -8 40
-25 45 -72 20 -16 -8 -38 -15 -49 -15 -12 0 -25 -4 -30 -9 -20 -20 -135 -33
-319 -38 -181 -4 -191 -6 -221 -29 -62 -47 -239 -68 -334 -39 -73 22 -131 47
-131 56 0 4 -11 10 -24 13 -14 3 -41 22 -61 40 -65 62 -63 61 -85 35 -10 -13
-19 -29 -20 -36 0 -6 -4 -13 -8 -15 -5 -1 -37 -36 -72 -77 -75 -88 -130 -140
-147 -141 -7 0 -13 -3 -13 -8 0 -7 -31 -25 -103 -56 -21 -9 -53 -16 -71 -16
-39 0 -112 30 -143 59 -12 12 -26 21 -31 21 -5 0 -15 7 -22 15 -18 22 -26 19
-49 -18 -43 -71 -45 -201 -3 -249 18 -21 9 -48 -15 -48 -22 1 -80 58 -85 85
-2 12 -15 23 -33 28 -17 5 -45 15 -63 23 -29 12 -34 12 -51 -5 -21 -21 -41
-80 -41 -122 0 -87 -53 -120 -85 -54 -13 29 -20 35 -36 30 -69 -22 -261 -20
-278 2 -3 4 -13 9 -21 9 -8 1 -24 3 -34 5 -26 5 -38 -45 -30 -126 6 -63 17
-87 68 -144 72 -81 71 -81 165 -82 134 -2 136 -1 93 39 -34 32 -50 78 -34 94
7 7 24 1 57 -21 25 -17 50 -31 56 -31 5 0 9 -4 9 -10 0 -17 73 -33 205 -44
122 -10 130 -12 133 -33 6 -39 -30 -48 -183 -48 -90 0 -147 -4 -161 -12 -11
-6 -31 -13 -45 -15 -13 -2 -34 -9 -46 -16 -12 -7 -59 -12 -107 -12 l-86 0 0
-32 c0 -37 38 -98 61 -98 8 0 20 -5 27 -12 16 -16 95 -38 163 -45 68 -6 137
22 207 85 14 12 32 22 41 22 9 0 29 7 45 15 15 8 36 15 45 15 9 0 21 4 27 9 9
10 77 24 193 41 35 5 68 14 75 19 6 5 26 12 44 16 17 3 32 10 32 15 0 4 9 10
20 13 35 9 33 33 -7 94 l-39 58 -92 1 c-118 1 -203 26 -227 66 -9 16 -13 33
-10 38 9 15 62 12 114 -6 35 -13 62 -15 114 -10 l67 8 0 73 c0 72 0 73 -37
102 -57 47 -40 56 88 48 132 -7 254 8 325 41 28 13 56 24 63 24 9 0 46 19 70
37 3 2 -8 16 -22 31 -24 25 -26 30 -13 48 13 17 17 18 48 5 18 -7 44 -15 58
-18 14 -3 31 -11 39 -16 17 -14 347 -13 393 1 37 12 117 29 197 42 29 5 58 13
64 19 6 6 25 11 42 11 17 0 35 4 40 9 12 12 86 32 143 38 39 5 42 3 42 -19 0
-17 -12 -30 -45 -51 -25 -15 -48 -27 -51 -27 -3 0 -20 -6 -37 -14 -48 -22
-125 -46 -147 -46 -10 0 -22 -4 -25 -10 -3 -5 -18 -10 -33 -10 -16 0 -52 -6
-82 -14 -30 -7 -111 -21 -180 -31 -69 -10 -127 -20 -129 -22 -6 -4 26 -33 72
-63 29 -19 37 -31 35 -50 -4 -30 -34 -37 -90 -21 -38 12 -148 107 -148 129 0
17 -47 15 -83 -4 -58 -30 -67 -34 -80 -34 -8 0 -27 -6 -43 -14 -16 -8 -63 -22
-104 -31 -41 -9 -90 -21 -108 -26 -18 -6 -64 -9 -102 -8 -38 2 -72 0 -76 -4
-11 -11 15 -115 43 -175 25 -51 87 -122 108 -122 5 0 33 -12 60 -26 42 -22 68
-27 163 -31 61 -3 112 -3 112 0 0 3 -14 19 -31 36 -40 40 -38 77 5 74 16 -1
36 -8 45 -16 35 -30 130 -59 221 -68 211 -22 384 8 580 99 82 39 250 196 271
255 7 21 18 42 24 46 15 11 89 31 115 31 12 0 38 7 58 16 110 49 209 99 223
113 8 9 28 27 45 41 42 36 107 119 130 165 10 22 22 42 27 43 4 2 7 9 7 15 0
7 7 25 16 42 8 16 18 49 21 72 7 54 34 74 53 39 12 -24 12 -33 -9 -173 -11
-77 -7 -103 15 -103 8 0 14 -4 14 -9 0 -5 21 -19 48 -31 26 -12 56 -27 67 -33
12 -7 75 -12 165 -13 180 -2 170 0 170 -23 0 -23 -13 -33 -75 -56 -63 -24
-247 -27 -315 -6 -69 21 -129 51 -152 75 -19 21 -20 21 -34 2 -8 -11 -14 -41
-14 -67 0 -56 -17 -74 -60 -65 -30 6 -38 3 -90 -24 -75 -40 -140 -70 -152 -70
-7 0 -19 -10 -27 -22 -11 -18 -11 -29 4 -72 13 -40 15 -57 6 -78 -6 -16 -15
-28 -20 -28 -17 0 -60 52 -89 108 -30 58 -48 63 -72 18 -8 -16 -22 -39 -32
-50 -9 -12 -44 -56 -79 -100 -54 -67 -61 -81 -51 -97 7 -10 12 -31 12 -46 0
-18 12 -37 35 -59 42 -38 44 -54 8 -54 -28 0 -173 77 -173 92 0 16 -44 7 -74
-16 -17 -12 -44 -26 -61 -29 -16 -3 -50 -13 -75 -22 -116 -44 -206 -56 -415
-54 -134 2 -221 -2 -263 -11 -86 -18 -215 -6 -338 31 -40 12 -43 11 -82 -19
-22 -18 -43 -32 -47 -32 -3 0 -30 -11 -58 -24 -45 -20 -94 -32 -242 -61 -106
-21 -132 -28 -150 -41 -20 -15 -20 -15 5 -35 14 -10 36 -22 50 -25 14 -3 39
-12 55 -19 17 -7 71 -21 120 -29 50 -9 109 -21 133 -26 23 -6 78 -10 122 -10
177 0 208 -67 36 -77 -84 -6 -339 19 -383 37 -32 13 -30 -9 3 -63 41 -65 125
-137 161 -137 10 -1 29 -7 43 -15 14 -8 44 -14 68 -15 24 0 52 -5 63 -10 10
-6 56 -13 101 -16 98 -7 158 -21 158 -36 0 -6 8 -17 18 -24 21 -16 208 -19
309 -4 38 5 102 14 143 20 104 15 163 25 250 45 41 9 95 20 120 24 25 4 55 13
67 19 12 7 31 12 42 12 12 0 21 5 21 10 0 6 8 10 18 10 33 0 102 57 102 85 0
18 9 28 38 41 34 16 102 71 102 83 0 4 -16 7 -36 8 -20 1 -42 7 -48 13 -19 19
44 66 98 74 41 6 50 4 76 -17 16 -14 44 -28 62 -32 34 -7 92 -30 118 -46 8 -5
25 -13 36 -18 12 -5 31 -22 42 -38 34 -48 82 -149 82 -174 0 -13 7 -33 15 -43
20 -26 20 -150 0 -206 -8 -23 -15 -64 -15 -91 0 -26 -4 -51 -10 -54 -5 -3 -10
-16 -10 -28 0 -33 -32 -120 -60 -160 -16 -23 -44 -44 -84 -62 -34 -15 -68 -31
-76 -36 -8 -5 -22 -12 -30 -15 -30 -13 -130 -79 -130 -86 0 -16 71 -7 110 13
31 16 44 19 53 10 16 -16 22 -14 59 19 42 39 106 60 118 40 10 -17 7 -23 -50
-90 -86 -101 -112 -121 -146 -116 -22 3 -38 -2 -58 -19 -14 -12 -41 -28 -59
-35 -17 -6 -41 -17 -52 -22 -11 -6 -40 -22 -65 -34 -25 -12 -55 -33 -66 -46
-11 -13 -38 -38 -58 -57 -30 -26 -36 -38 -32 -57 6 -22 1 -27 -46 -49 -29 -14
-58 -25 -64 -25 -5 0 -19 -8 -30 -18 -41 -39 -108 -82 -126 -82 -10 0 -38 -9
-61 -21 -23 -11 -57 -23 -76 -26 -19 -3 -46 -13 -60 -23 -35 -24 -149 -44
-202 -35 -37 6 -44 4 -59 -15 -13 -18 -30 -23 -84 -27 -73 -6 -91 -19 -58 -41
27 -17 28 -31 5 -48 -10 -7 -15 -15 -11 -19 6 -6 30 10 69 47 9 9 27 19 40 23
12 4 36 16 53 26 19 12 50 19 79 19 47 0 143 25 161 41 6 5 25 9 43 9 26 0 33
-4 33 -20 0 -24 13 -26 30 -5 28 34 72 57 117 60 27 2 50 10 55 18 4 8 34 24
65 37 32 12 76 30 99 41 23 10 51 19 62 19 11 0 30 13 42 29 11 17 31 33 43
37 12 4 35 17 50 30 16 13 41 27 55 31 15 3 42 19 60 35 47 40 68 34 63 -17
-4 -55 -26 -93 -67 -117 -19 -11 -34 -24 -34 -28 0 -22 -131 -138 -185 -164
-33 -16 -75 -44 -93 -63 -18 -18 -48 -39 -65 -47 -18 -7 -55 -34 -82 -59 -28
-26 -80 -63 -117 -82 -38 -20 -68 -39 -68 -44 0 -4 6 -15 13 -24 11 -16 16
-14 56 23 24 22 62 50 85 62 119 61 156 82 215 118 34 22 65 40 67 40 2 0 25
10 50 21 31 15 48 19 56 11 7 -7 4 -14 -11 -21 -24 -13 -28 -31 -7 -31 18 0
62 42 70 68 11 32 93 113 109 106 11 -4 13 -26 11 -99 -3 -85 -7 -101 -44
-177 -22 -46 -40 -88 -40 -94 0 -6 -7 -17 -15 -24 -17 -14 -21 -60 -5 -60 6 0
10 6 10 13 0 7 11 28 24 48 13 19 26 49 28 65 2 21 9 30 25 32 25 4 43 -28 43
-73 0 -19 36 -105 70 -167 6 -10 10 -38 10 -62 0 -35 4 -45 19 -49 13 -3 24
-20 32 -48 7 -24 19 -53 26 -65 8 -12 10 -29 6 -40 -6 -17 -5 -18 11 -5 16 13
23 9 71 -44 30 -32 57 -65 60 -72 8 -22 -23 -70 -90 -143 -41 -44 -77 -99
-113 -171 -30 -59 -62 -115 -71 -126 -32 -34 -41 -59 -47 -135 -5 -67 -4 -71
10 -54 9 11 18 36 22 55 8 51 32 112 53 136 10 11 28 42 41 69 28 60 54 88 75
80 12 -5 15 1 15 28 0 37 32 91 88 151 43 44 55 46 71 11 9 -21 16 -25 35 -20
20 5 28 0 46 -29 19 -31 60 -65 60 -50 0 15 -67 95 -88 104 -33 16 -42 49 -25
89 23 54 61 110 87 127 23 15 27 15 51 -1 26 -17 65 -81 65 -107 0 -8 16 -32
36 -53 20 -22 29 -28 20 -14 -9 13 -16 37 -16 53 0 35 -15 64 -49 97 -15 14
-32 38 -39 54 -11 25 -11 31 2 38 9 5 16 16 16 25 0 18 60 113 71 113 5 0 21
25 35 55 15 30 31 55 36 55 4 0 8 6 8 14 0 7 7 19 16 27 20 17 56 89 79 159
24 75 30 85 49 82 20 -4 21 21 1 38 -17 14 -19 56 -6 113 6 26 5 53 -6 90 -26
93 -27 97 -9 97 28 0 97 -42 124 -76 26 -33 71 -52 92 -39 7 4 -12 21 -42 40
-29 18 -64 44 -78 58 -14 14 -48 39 -77 56 -37 23 -62 49 -92 97 -39 62 -52
104 -32 104 6 0 49 -18 96 -40 47 -22 92 -40 99 -40 7 0 23 -11 36 -25 13 -14
31 -25 41 -25 9 0 33 -20 53 -45 42 -51 56 -56 56 -20 0 15 6 25 14 25 8 0 28
-11 44 -25 17 -14 38 -25 47 -25 24 0 145 -80 145 -96 0 -7 -9 -16 -21 -19
-28 -9 -13 -22 35 -32 50 -11 67 -35 43 -61 -29 -32 -22 -52 18 -52 39 0 40
-2 24 -33 -10 -18 -8 -24 17 -43 27 -22 28 -25 16 -57 -7 -18 -12 -41 -12 -51
0 -18 -48 -107 -63 -117 -14 -10 -1 -39 16 -39 20 0 30 15 57 83 13 31 28 57
34 57 6 0 32 -21 57 -48 25 -26 67 -63 93 -82 26 -19 74 -57 107 -83 48 -39
60 -45 65 -32 8 20 -29 61 -63 70 -48 12 -156 106 -231 201 -33 43 -40 68 -21
79 7 5 6 12 -3 23 -30 36 -62 162 -42 162 23 -1 85 -28 117 -53 33 -25 42 -27
138 -27 81 0 100 3 91 12 -7 7 -31 13 -55 13 -23 1 -58 6 -77 13 -19 6 -54 16
-77 22 -44 11 -73 44 -56 61 6 6 44 4 99 -6 211 -37 255 -48 296 -76 14 -11
39 -19 55 -19 15 0 52 -11 82 -25 30 -14 56 -23 59 -20 6 6 9 4 -58 49 -30 20
-61 36 -68 36 -8 0 -11 7 -8 18 4 12 0 17 -17 19 -118 9 -357 71 -357 93 0 11
-56 25 -99 25 -19 0 -36 6 -38 13 -3 7 5 12 21 12 39 0 31 18 -11 25 -78 13
-83 15 -89 43 -4 15 -21 43 -39 62 -61 66 -49 88 30 55 20 -8 54 -17 78 -20
23 -3 58 -10 77 -15 44 -12 143 -13 136 -1 -3 5 -18 11 -33 14 -57 11 -220 58
-263 76 -25 10 -69 22 -98 25 -54 7 -98 25 -249 100 -62 31 -109 66 -190 141
-176 164 -216 208 -236 261 -11 27 -23 58 -28 69 -15 34 -30 106 -39 185 -8
69 -19 117 -50 224 -7 22 -10 71 -8 109 4 67 5 70 50 110 159 145 168 156 168
207 0 31 14 77 48 160 5 14 26 40 45 59 31 29 45 35 104 41 150 17 248 32 257
41 6 5 24 9 40 9 31 0 68 19 99 52 12 12 17 34 17 76 0 54 -3 63 -32 91 -17
17 -37 31 -42 31 -6 0 -21 3 -33 6 -13 4 -28 -1 -40 -13 -22 -21 -97 -59 -168
-84 -49 -18 -109 -17 -121 2 -11 18 7 47 34 54 15 3 44 17 64 31 21 13 41 24
46 24 22 0 130 120 157 175 27 55 30 69 30 161 0 99 -4 115 -43 191 -32 59
-165 203 -189 203 -6 0 -13 3 -15 8 -4 9 -85 72 -93 72 -4 0 -21 11 -38 24
-44 33 -220 116 -245 116 -12 0 -24 5 -27 10 -3 6 -34 10 -68 10 -49 0 -75 -7
-121 -30z m68 -848 c2 -4 1 -14 -4 -22 -7 -11 -12 -12 -21 -3 -6 6 -8 16 -5
22 8 13 23 14 30 3z m-22 -284 c24 -23 179 -98 202 -98 12 0 31 -6 41 -14 17
-12 18 -18 7 -53 -31 -103 -181 -240 -232 -213 -10 6 -27 10 -37 10 -22 0 -77
51 -105 95 -36 60 -12 145 41 145 29 0 35 17 21 65 -7 25 -10 51 -7 60 8 18
50 20 69 3z m-412 -417 c38 -38 70 -71 70 -74 0 -3 -7 -12 -15 -20 -12 -13
-23 -13 -68 -3 -30 7 -65 20 -78 29 -29 21 -67 22 -116 2 -90 -36 -283 -63
-322 -45 -24 11 -25 13 -8 25 10 7 51 23 90 35 173 54 301 100 305 112 2 4 19
8 37 8 28 0 46 -11 105 -69z m716 -1207 c70 -24 105 -60 75 -79 -17 -10 -96
36 -113 66 -10 16 -16 29 -14 29 1 0 25 -7 52 -16z m194 -104 c0 -25 34 -37
208 -69 60 -11 86 -29 185 -123 68 -66 80 -98 36 -98 -26 0 -84 25 -116 50
-14 11 -44 25 -67 31 -22 6 -54 21 -71 33 -16 13 -40 26 -52 30 -13 4 -23 12
-23 17 0 5 -7 9 -16 9 -21 0 -72 28 -106 59 -29 26 -36 59 -17 78 15 15 39 5
39 -17z m-424 -7 c7 -10 14 -26 14 -35 0 -9 11 -30 25 -46 14 -17 25 -34 25
-40 0 -5 -18 -26 -40 -46 -39 -35 -39 -36 -18 -47 18 -10 24 -8 39 12 10 13
19 28 19 32 0 20 45 -1 60 -28 9 -16 26 -31 38 -33 31 -5 60 -51 64 -103 2
-36 6 -44 23 -44 17 0 21 -10 29 -70 8 -59 6 -82 -11 -151 -12 -45 -19 -92
-16 -103 3 -12 -2 -36 -11 -55 -9 -19 -16 -41 -16 -51 0 -9 -22 -40 -48 -68
-26 -29 -56 -70 -67 -92 -29 -61 -98 -164 -113 -170 -23 -9 -32 5 -32 49 0 23
-3 46 -7 50 -13 13 -2 140 14 158 8 9 13 27 11 40 -3 21 -6 18 -34 -23 -25
-36 -29 -50 -22 -69 5 -14 6 -35 3 -48 -5 -20 -10 -23 -37 -17 -29 7 -30 6
-24 -19 5 -22 3 -26 -16 -26 -21 0 -21 -1 -5 -17 17 -17 19 -16 40 10 16 20
27 26 40 21 17 -6 17 -8 1 -25 -9 -11 -23 -19 -31 -19 -8 0 -13 -11 -13 -29 0
-23 6 -30 32 -37 38 -11 46 -35 27 -73 -19 -36 -128 -171 -139 -171 -12 0
-175 247 -195 294 -8 19 -15 53 -15 75 0 29 -5 41 -17 45 -20 7 -63 109 -63
148 0 33 27 58 41 37 5 -8 9 -18 9 -24 0 -5 21 -23 46 -39 25 -16 50 -38 56
-50 15 -33 99 -87 115 -74 21 17 15 28 -19 43 -37 15 -99 77 -147 144 -36 51
-39 71 -11 71 14 0 22 11 30 40 8 29 17 41 35 46 24 6 43 39 31 52 -4 3 -19
-2 -35 -11 -15 -9 -31 -14 -34 -11 -3 3 -11 3 -18 -2 -9 -5 -7 -11 6 -20 21
-15 19 -19 -12 -28 -19 -6 -23 -3 -23 13 0 11 -7 24 -16 29 -10 6 -22 35 -30
72 -11 53 -11 70 1 104 8 22 19 42 25 44 5 2 10 10 10 18 0 22 72 84 97 84 35
0 53 11 53 33 0 13 37 56 98 116 53 53 107 109 119 124 27 31 41 34 59 10z
m-316 -43 c0 -9 -15 -28 -102 -123 -34 -38 -62 -32 -47 10 12 35 24 49 72 91
36 31 77 43 77 22z m-390 -125 c0 -16 -27 -32 -37 -21 -7 7 16 36 28 36 5 0 9
-7 9 -15z m1630 -245 c0 -5 -6 -10 -14 -10 -8 0 -18 5 -21 10 -3 6 3 10 14 10
12 0 21 -4 21 -10z"/>
<path d="M5168 2846 c-26 -19 -22 -27 7 -14 14 6 25 15 25 20 0 12 -12 9 -32
-6z"/>
<path d="M5100 2680 c0 -24 35 -28 44 -4 9 23 8 24 -19 24 -18 0 -25 -5 -25
-20z"/>
<path d="M5430 2613 c-7 -21 -19 -48 -27 -61 -8 -13 -12 -29 -10 -35 3 -7 12
4 20 24 9 19 23 41 31 49 18 14 21 46 7 55 -5 3 -15 -12 -21 -32z"/>
<path d="M5055 2632 c-19 -14 -38 -61 -31 -79 6 -15 9 -13 21 13 7 18 18 35
24 38 12 8 15 36 4 36 -5 0 -13 -4 -18 -8z"/>
<path d="M4983 2553 c-15 -6 -17 -43 -3 -43 12 0 24 25 18 38 -1 5 -9 7 -15 5z"/>
<path d="M5253 2340 c-18 -21 -33 -49 -33 -62 l1 -23 19 25 c10 14 26 32 33
42 18 20 31 58 20 58 -4 0 -23 -18 -40 -40z"/>
<path d="M5295 2250 c-3 -5 3 -10 14 -10 12 0 21 5 21 10 0 6 -6 10 -14 10 -8
0 -18 -4 -21 -10z"/>
<path d="M2015 5932 c-14 -10 -75 -141 -75 -161 0 -6 -4 -19 -9 -29 -34 -67
-42 -124 -43 -298 0 -147 2 -184 16 -209 9 -16 16 -37 16 -45 0 -9 14 -32 30
-52 44 -53 119 -76 198 -61 121 24 125 26 160 92 22 42 11 82 -36 130 -7 8
-27 38 -44 67 l-30 54 -56 0 c-88 1 -168 44 -160 87 4 20 43 30 61 15 19 -16
110 -19 115 -4 2 7 -3 31 -12 53 -9 22 -19 82 -22 132 -8 139 -12 155 -51 198
-37 41 -42 43 -58 31z"/>
<path d="M4498 3146 c-21 -6 -50 -23 -64 -38 l-26 -26 41 11 c23 6 53 24 68
39 15 15 25 28 22 27 -2 -1 -21 -6 -41 -13z"/>
<path d="M4207 3024 c-19 -20 -5 -34 33 -34 41 0 54 14 23 23 -10 2 -25 8 -34
11 -8 4 -18 3 -22 0z"/>
<path d="M6460 2871 c0 -5 14 -11 31 -15 45 -9 65 -8 54 3 -14 12 -85 22 -85
12z"/>
<path d="M6580 2837 c0 -3 16 -15 36 -26 27 -16 45 -20 70 -15 40 7 37 20 -8
27 -18 4 -48 9 -65 13 -18 3 -33 4 -33 1z"/>
<path d="M5847 2734 c7 -3 21 -20 32 -38 17 -28 25 -32 51 -28 16 2 30 10 30
17 0 13 -88 56 -112 54 -9 0 -10 -2 -1 -5z"/>
<path d="M5975 2650 c3 -5 13 -10 21 -10 8 0 12 5 9 10 -3 6 -13 10 -21 10 -8
0 -12 -4 -9 -10z"/>
<path d="M5870 2620 c0 -5 7 -10 15 -10 8 0 15 5 15 10 0 6 -7 10 -15 10 -8 0
-15 -4 -15 -10z"/>
<path d="M4343 2608 c-13 -6 -23 -15 -23 -20 0 -4 -15 -8 -32 -8 -18 0 -40 -5
-48 -10 -11 -7 1 -10 41 -10 55 0 71 8 93 48 9 14 -1 15 -31 0z"/>
<path d="M5925 2590 c4 -6 11 -8 16 -5 14 9 11 15 -7 15 -8 0 -12 -5 -9 -10z"/>
<path d="M5965 2550 c-3 -4 -15 -6 -28 -3 -22 5 -22 5 -2 -10 11 -9 29 -17 41
-17 11 0 33 -13 49 -29 15 -17 37 -31 49 -33 13 -2 22 -12 24 -25 2 -13 10
-23 18 -23 11 0 14 9 12 33 -2 23 -8 32 -21 32 -10 0 -28 9 -40 21 -33 30 -96
64 -102 54z"/>
<path d="M6590 2500 c-12 -7 -11 -10 5 -15 11 -4 38 -15 61 -26 23 -10 51 -19
64 -19 19 0 20 -2 10 -15 -26 -31 -5 -45 67 -45 49 0 89 -7 141 -26 40 -15 75
-24 78 -21 3 3 3 14 0 25 -7 21 -33 32 -78 32 -15 0 -48 11 -74 25 -26 14 -54
25 -64 25 -9 0 -25 7 -36 15 -10 8 -28 15 -39 15 -11 0 -33 9 -50 20 -32 22
-61 25 -85 10z"/>
<path d="M3355 2490 c-4 -6 3 -10 14 -10 25 0 27 6 6 13 -8 4 -17 2 -20 -3z"/>
<path d="M6468 2474 c-3 -3 18 -27 47 -55 29 -27 57 -64 63 -82 5 -18 10 -24
11 -14 1 10 -4 27 -9 37 -7 13 -7 21 0 25 19 12 10 25 -45 60 -60 38 -59 38
-67 29z"/>
<path d="M6003 2443 c-18 -6 -16 -33 1 -33 19 0 31 19 20 30 -5 4 -15 5 -21 3z"/>
<path d="M3320 2381 c-76 -27 -91 -43 -46 -49 28 -4 156 52 156 68 0 15 -27
11 -110 -19z"/>
<path d="M3872 2388 c-18 -18 -14 -28 8 -28 11 0 20 6 20 14 0 21 -15 27 -28
14z"/>
<path d="M4552 2370 c0 -14 2 -19 5 -12 2 6 2 18 0 25 -3 6 -5 1 -5 -13z"/>
<path d="M6047 2373 c-4 -3 -7 -19 -7 -35 0 -16 -6 -31 -15 -34 -8 -4 -15 -12
-15 -18 0 -7 -13 -25 -30 -41 -16 -16 -30 -37 -30 -47 0 -18 1 -18 24 -1 31
23 76 87 76 107 0 9 5 16 10 16 6 0 10 -4 10 -10 0 -5 4 -10 10 -10 5 0 9 18
8 40 -1 30 -5 40 -18 40 -9 0 -20 -3 -23 -7z"/>
<path d="M6422 2351 c25 -33 45 -44 59 -35 9 5 -62 64 -77 64 -3 0 5 -13 18
-29z"/>
<path d="M5684 2329 c-3 -6 -2 -21 4 -32 6 -12 13 -30 16 -39 7 -22 46 -24 46
-3 0 8 -9 19 -20 25 -12 6 -20 21 -20 35 0 26 -14 33 -26 14z"/>
<path d="M6577 2294 c-10 -10 12 -44 28 -44 8 0 15 4 15 8 0 13 -36 43 -43 36z"/>
<path d="M3760 2254 c0 -9 7 -14 17 -12 25 5 28 28 4 28 -12 0 -21 -6 -21 -16z"/>
<path d="M5642 2213 c2 -10 12 -18 23 -18 11 0 21 8 23 18 3 13 -3 17 -23 17
-20 0 -26 -4 -23 -17z"/>
<path d="M6536 2171 c-3 -5 1 -14 9 -21 12 -10 15 -10 15 3 0 19 -16 31 -24
18z"/>
<path d="M6073 2138 c-18 -24 -24 -38 -16 -38 11 1 46 50 35 50 -5 0 -14 -6
-19 -12z"/>
<path d="M5875 2120 c-12 -14 -25 -17 -46 -13 -26 5 -29 3 -29 -18 1 -27 21
-59 39 -59 6 0 11 9 11 20 0 11 14 32 30 47 30 26 38 43 22 43 -5 0 -17 -9
-27 -20z"/>
<path d="M4555 2119 c-4 -6 -5 -12 -2 -15 2 -3 7 2 10 11 7 17 1 20 -8 4z"/>
<path d="M6585 2080 c-8 -13 12 -40 31 -40 20 0 17 14 -5 34 -13 12 -21 14
-26 6z"/>
<path d="M4477 2043 c-4 -3 -7 -16 -7 -27 1 -21 1 -21 15 -2 8 11 15 23 15 28
0 10 -14 11 -23 1z"/>
<path d="M6080 2042 c0 -5 -16 -27 -35 -49 -51 -60 -42 -77 10 -18 43 48 56
75 35 75 -5 0 -10 -4 -10 -8z"/>
<path d="M5854 1975 c-9 -23 4 -47 23 -43 22 4 30 38 11 49 -19 13 -28 11 -34
-6z"/>
<path d="M4768 1914 c-5 -4 -8 -19 -8 -33 0 -18 3 -22 11 -14 6 6 9 21 7 33
-1 12 -6 18 -10 14z"/>
<path d="M5972 1898 c-14 -14 -16 -38 -2 -38 9 0 30 31 30 44 0 10 -15 7 -28
-6z"/>
<path d="M5750 1889 c0 -5 5 -7 10 -4 6 3 10 8 10 11 0 2 -4 4 -10 4 -5 0 -10
-5 -10 -11z"/>
<path d="M5893 1844 c9 -11 17 -26 17 -34 0 -7 12 -24 27 -37 18 -18 27 -36
28 -61 0 -20 6 -37 12 -39 22 -8 23 17 3 69 -11 29 -20 65 -20 79 0 23 -3 26
-25 21 -14 -2 -33 2 -43 9 -16 13 -16 13 1 -7z"/>
<path d="M5730 1761 c0 -5 7 -14 15 -21 13 -10 15 -9 15 9 0 12 -6 21 -15 21
-8 0 -15 -4 -15 -9z"/>
<path d="M5440 1685 c0 -8 7 -15 15 -15 8 0 15 7 15 15 0 8 -7 15 -15 15 -8 0
-15 -7 -15 -15z"/>
<path d="M5420 1521 c5 -11 10 -28 10 -39 0 -19 60 -105 69 -97 2 3 -3 13 -12
22 -8 10 -19 32 -23 48 -8 36 -35 85 -47 85 -4 0 -3 -9 3 -19z"/>
<path d="M5080 1518 c1 -7 12 -26 26 -43 14 -16 24 -25 22 -20 -2 6 -10 25
-17 43 -13 32 -31 44 -31 20z"/>
<path d="M4768 1432 c-10 -2 -18 -8 -18 -13 0 -5 -7 -9 -15 -9 -8 0 -15 -4
-15 -10 0 -16 26 -12 51 9 26 21 24 30 -3 23z"/>
<path d="M4852 1272 c-24 -54 -28 -82 -13 -82 31 0 62 82 44 115 -8 14 -14 8
-31 -33z"/>
<path d="M5400 1253 c1 -18 19 -35 29 -28 9 5 9 10 0 21 -12 15 -29 19 -29 7z"/>
<path d="M5530 1217 c0 -23 11 -47 21 -47 15 0 10 37 -6 50 -12 10 -15 10 -15
-3z"/>
<path d="M4634 919 c-3 -6 -1 -16 5 -22 8 -8 11 -5 11 11 0 24 -5 28 -16 11z"/>
</g>
</svg>
